<?xml version="1.0" encoding="UTF-8"?> <svg xmlns="http://www.w3.org/2000/svg" width="389" height="390" viewBox="0 0 389 390" fill="none"> <path d="M194.5 7.02035L228.779 57.8261L230.552 60.4534L233.4 59.0644L288.49 32.2049L292.773 93.3435L292.995 96.505L296.157 96.7265L357.295 101.01L330.436 156.1L329.047 158.948L331.674 160.721L382.48 195L331.674 229.279L329.047 231.052L330.436 233.9L357.295 288.99L296.157 293.273L292.995 293.495L292.773 296.657L288.49 357.795L233.4 330.936L230.552 329.547L228.779 332.174L194.5 382.98L160.221 332.174L158.448 329.547L155.6 330.936L100.51 357.795L96.2265 296.657L96.005 293.495L92.8435 293.273L31.7049 288.99L58.5644 233.9L59.9534 231.052L57.3261 229.279L6.52035 195L57.3261 160.721L59.9534 158.948L58.5644 156.1L31.7049 101.01L92.8435 96.7265L96.005 96.505L96.2265 93.3435L100.51 32.2049L155.6 59.0644L158.448 60.4534L160.221 57.8261L194.5 7.02035Z" stroke="#4DE108" stroke-width="7.29375"></path> </svg> 